<svg width="16" height="18" viewBox="0 0 16 18" fill="none" xmlns="http://www.w3.org/2000/svg">
<path d="M14.7692 1.28571C14.7692 1.99554 14.6731 2.68527 14.4808 3.35491C14.2885 4.02455 13.9968 4.65737 13.6058 5.25335C13.4071 5.55469 13.1987 5.82924 12.9808 6.07701C12.7628 6.32478 12.5321 6.54911 12.2885 6.75C12.0449 6.95089 11.7821 7.14174 11.5 7.32254C11.2179 7.50335 10.9231 7.66741 10.6154 7.81473C10.3782 7.92857 10.1923 8.08259 10.0577 8.27679C9.92308 8.47098 9.85256 8.71205 9.84615 9C9.84615 9.28125 9.91346 9.51897 10.0481 9.71317C10.1827 9.90737 10.3718 10.0647 10.6154 10.1853C10.9295 10.3393 11.2244 10.5033 11.5 10.6775C11.7756 10.8516 12.0353 11.0391 12.2788 11.24C12.5224 11.4408 12.7564 11.6685 12.9808 11.923C13.2051 12.1775 13.4135 12.452 13.6058 12.7467C13.9904 13.3359 14.2788 13.9654 14.4712 14.635C14.6635 15.3047 14.7628 15.9978 14.7692 16.7143H16V18H0V16.7143H1.23077C1.23077 16.0045 1.32692 15.3147 1.51923 14.6451C1.71154 13.9754 2.00321 13.3426 2.39423 12.7467C2.59936 12.4319 2.8109 12.154 3.02885 11.9129C3.24679 11.6719 3.47436 11.4475 3.71154 11.24C3.94872 11.0324 4.20833 10.8482 4.49038 10.6875C4.77244 10.5268 5.07051 10.3627 5.38462 10.1953C5.61538 10.0815 5.80128 9.92411 5.94231 9.72321C6.08333 9.52232 6.15385 9.28125 6.15385 9C6.15385 8.71875 6.08654 8.48103 5.95192 8.28683C5.81731 8.09263 5.62821 7.93527 5.38462 7.81473C5.07051 7.66071 4.77564 7.49665 4.5 7.32254C4.22436 7.14844 3.96474 6.96094 3.72115 6.76004C3.47756 6.55915 3.24359 6.33147 3.01923 6.07701C2.79487 5.82254 2.58654 5.54799 2.39423 5.25335C2.00962 4.66406 1.72115 4.0346 1.52885 3.36496C1.33654 2.69531 1.23718 2.00223 1.23077 1.28571H0V0H16V1.28571H14.7692ZM8.61538 9C8.61538 8.45089 8.75321 7.97545 9.02885 7.57366C9.30449 7.17187 9.67308 6.85379 10.1346 6.61942C10.3205 6.52567 10.5 6.43527 10.6731 6.34821C10.8462 6.26116 11.016 6.15067 11.1827 6.01674C11.5545 5.74888 11.8846 5.44085 12.1731 5.09263C12.4615 4.74442 12.7083 4.36607 12.9135 3.95759C13.1186 3.54911 13.2724 3.12054 13.375 2.67187C13.4776 2.22321 13.5321 1.76116 13.5385 1.28571H2.46154C2.46154 1.75446 2.51282 2.21317 2.61538 2.66183C2.71795 3.11049 2.87179 3.53906 3.07692 3.94754C3.28205 4.35603 3.52885 4.73437 3.81731 5.08259C4.10577 5.4308 4.4391 5.74219 4.81731 6.01674C4.98397 6.14397 5.15385 6.25112 5.32692 6.33817C5.5 6.42522 5.67949 6.51897 5.86538 6.61942C6.32692 6.85379 6.69551 7.17187 6.97115 7.57366C7.2468 7.97545 7.38462 8.45089 7.38462 9C7.38462 9.54911 7.2468 10.0246 6.97115 10.4263C6.69551 10.8281 6.32692 11.1462 5.86538 11.3806C5.67949 11.4743 5.5 11.5647 5.32692 11.6518C5.15385 11.7388 4.98397 11.8493 4.81731 11.9833C4.44551 12.2511 4.11538 12.5592 3.82692 12.9074C3.53846 13.2556 3.29167 13.6339 3.08654 14.0424C2.88141 14.4509 2.72756 14.8795 2.625 15.3281C2.52244 15.7768 2.46795 16.2388 2.46154 16.7143H13.5385C13.5385 16.2455 13.4872 15.7868 13.3846 15.3382C13.2821 14.8895 13.1282 14.4609 12.9231 14.0525C12.7179 13.644 12.4712 13.2656 12.1827 12.9174C11.8942 12.5692 11.5609 12.2578 11.1827 11.9833C11.016 11.856 10.8462 11.7489 10.6731 11.6618C10.5 11.5748 10.3205 11.481 10.1346 11.3806C9.67308 11.1462 9.30449 10.8281 9.02885 10.4263C8.75321 10.0246 8.61538 9.54911 8.61538 9Z" fill="white"/>
</svg>
