<svg width="41" height="41" viewBox="0 0 41 41" fill="none" xmlns="http://www.w3.org/2000/svg">
<path d="M20.5 39.2917C11.0068 37.1819 3.41669 28.2251 3.41669 18.7917V8.54166L20.5 1.70833L37.5834 8.54166V18.7917C37.5834 28.2285 29.9932 37.1819 20.5 39.2917ZM6.83335 10.25V18.7917C6.93098 22.7415 8.32022 26.5506 10.7884 29.6359C13.2567 32.7212 16.6679 34.9127 20.5 35.875C24.3321 34.9127 27.7434 32.7212 30.2116 29.6359C32.6798 26.5506 34.0691 22.7415 34.1667 18.7917V10.25L20.5 5.12499L6.83335 10.25Z" fill="white"/>
<path d="M20.5 18.7917C22.8587 18.7917 24.7709 16.8795 24.7709 14.5208C24.7709 12.1621 22.8587 10.25 20.5 10.25C18.1413 10.25 16.2292 12.1621 16.2292 14.5208C16.2292 16.8795 18.1413 18.7917 20.5 18.7917Z" fill="white"/>
<path d="M11.9583 25.625C12.8003 27.1594 14.035 28.4426 15.5358 29.3431C17.0367 30.2436 18.7498 30.7291 20.5 30.75C22.2501 30.7291 23.9633 30.2436 25.4642 29.3431C26.965 28.4426 28.1996 27.1594 29.0416 25.625C28.9989 22.386 23.3324 20.5 20.5 20.5C17.6522 20.5 12.001 22.386 11.9583 25.625Z" fill="white"/>
</svg>
