<svg width="17" height="17" viewBox="0 0 17 17" fill="none" xmlns="http://www.w3.org/2000/svg">
<path d="M1.77083 17C1.28385 17 0.867118 16.8337 0.520625 16.5011C0.173542 16.1679 0 15.7675 0 15.3V1.7C0 1.2325 0.173542 0.83215 0.520625 0.49895C0.867118 0.166317 1.28385 0 1.77083 0H8.85417L14.1667 5.1V8.5H12.3958V5.95H7.96875V1.7H1.77083V15.3H7.08333V17H1.77083ZM12.6615 10.6462L13.6133 11.56L10.1823 14.8325V15.725H11.112L14.543 12.4525L15.4727 13.345L11.6654 17H8.85417V14.3013L12.6615 10.6462ZM15.4727 13.345L12.6615 10.6462L13.9453 9.41375C14.1076 9.25792 14.3142 9.18 14.5651 9.18C14.816 9.18 15.0226 9.25792 15.1849 9.41375L16.7565 10.9225C16.9188 11.0783 17 11.2767 17 11.5175C17 11.7583 16.9188 11.9567 16.7565 12.1125L15.4727 13.345Z" fill="white"/>
</svg>
